# xmcd
#
# Track frame offsets:
#       150
#       12580
#       34312
#       52262
#       72882
#       86048
#       107911
#       123548
#       138734
#       158324
#       174827
#       187147
#       204283
#       226633
#       239125
#       258995
#
# Disc length: 3734 seconds
#
# Revision: 4
# Processed by: cddbd v1.5PL3 Copyright (c) Steve Scherf et al.
# Submitted via: MusiCat 1.1
#
DISCID=e30e9410
DTITLE=France Gall - Les Années Musique - by Snooker
DYEAR=1900
DGENRE=
TTITLE0=Amor tambien
TTITLE1=Babacar
TTITLE2=Cezanne peint
TTITLE3=Debranche
TTITLE4=Diego libre dans sa tête
TTITLE5=Ella, elle l'a
TTITLE6=Evidemment
TTITLE7=France
TTITLE8=Hong Kong star
TTITLE9=J'ai besoin de vous
TTITLE10=La chanson d'Azima
TTITLE11=La fille de shannon
TTITLE12=Papillon de nuit
TTITLE13=Plus haut
TTITLE14=Resiste
TTITLE15=Tout pour la musique
EXTD=Snooker\n\n
EXTT0=
EXTT1=
EXTT2=
EXTT3=
EXTT4=
EXTT5=
EXTT6=
EXTT7=
EXTT8=
EXTT9=
EXTT10=
EXTT11=
EXTT12=
EXTT13=
EXTT14=
EXTT15=
PLAYORDER=
